<svg width="1024" height="1024" xmlns="http://www.w3.org/2000/svg" class="icon">
 <defs>
  <style type="text/css"/>
 </defs>
 <g>
  <title>background</title>
  <rect fill="none" id="canvas_background" height="402" width="582" y="-1" x="-1"/>
 </g>
 <g>
  <title>Layer 1</title>
  <path id="svg_1" fill="#FFFFFF" d="m796,532.8a54.5,42 0 1 0 109,0a54.5,42 0 1 0 -109,0z"/>
  <path id="svg_2" fill="#525252" d="m850.5,583.8c-35,0 -63.5,-22.9 -63.5,-51s28.5,-51 63.5,-51s63.5,22.9 63.5,51s-28.5,51 -63.5,51zm0,-84c-25.1,0 -45.5,14.8 -45.5,33s20.4,33 45.5,33s45.5,-14.8 45.5,-33s-20.4,-33 -45.5,-33z"/>
  <path id="svg_3" fill="#FFFFFF" d="m121,534.8a54.5,42 0 1 0 109,0a54.5,42 0 1 0 -109,0z"/>
  <path id="svg_4" fill="#525252" d="m175.5,585.8c-35,0 -63.5,-22.9 -63.5,-51s28.5,-51 63.5,-51s63.5,22.9 63.5,51s-28.5,51 -63.5,51zm0,-84c-25.1,0 -45.5,14.8 -45.5,33s20.4,33 45.5,33s45.5,-14.8 45.5,-33s-20.4,-33 -45.5,-33z"/>
  <path id="svg_5" fill="#FFFFFF" d="m91,462.3a64,49.5 0 1 0 128,0a64,49.5 0 1 0 -128,0z"/>
  <path id="svg_6" fill="#525252" d="m155,520.8c-40.3,0 -73,-26.2 -73,-58.5s32.7,-58.5 73,-58.5s73,26.2 73,58.5s-32.7,58.5 -73,58.5zm0,-99c-30.3,0 -55,18.2 -55,40.5s24.7,40.5 55,40.5s55,-18.2 55,-40.5s-24.7,-40.5 -55,-40.5z"/>
  <path id="svg_7" fill="#FFFFFF" d="m807,460.3a64,49.5 0 1 0 128,0a64,49.5 0 1 0 -128,0z"/>
  <path id="svg_8" fill="#525252" d="m871,518.8c-40.3,0 -73,-26.2 -73,-58.5s32.7,-58.5 73,-58.5s73,26.2 73,58.5s-32.7,58.5 -73,58.5zm0,-99c-30.3,0 -55,18.2 -55,40.5s24.7,40.5 55,40.5s55,-18.2 55,-40.5s-24.7,-40.5 -55,-40.5z"/>
  <path id="svg_9" fill="#fe741a" d="m477,854c-145.9,-22.4 -308,-175.9 -308,-372.2c0,-212.6 131,-355 344,-355s344,142.4 344,355c0,196.3 -162.1,349.7 -308,372.2l0,6.8c0,19.9 -16.1,36 -36,36s-36,-16.1 -36,-36l0,-6.8z"/>
  <path id="svg_10" fill="#FFFFFF" d="m363,272.8c46.4,0 84,37.6 84,84s-37.6,84 -84,84s-84,-37.6 -84,-84s37.6,-84 84,-84z"/>
  <path id="svg_11" fill="#525252" d="m363,449.8c-51.3,0 -93,-41.7 -93,-93s41.7,-93 93,-93s93,41.7 93,93s-41.7,93 -93,93zm0,-168c-41.4,0 -75,33.6 -75,75s33.6,75 75,75s75,-33.6 75,-75s-33.6,-75 -75,-75z"/>
  <path id="svg_12" fill="#FFFFFF" d="m663,272.8c46.4,0 84,37.6 84,84s-37.6,84 -84,84s-84,-37.6 -84,-84s37.6,-84 84,-84z"/>
  <path id="svg_13" fill="#525252" d="m663,449.8c-51.3,0 -93,-41.7 -93,-93s41.7,-93 93,-93s93,41.7 93,93s-41.7,93 -93,93zm0,-168c-41.4,0 -75,33.6 -75,75s33.6,75 75,75s75,-33.6 75,-75s-33.6,-75 -75,-75z"/>
  <path id="svg_14" fill="#525252" d="m553.5,460.6c-4,-3 -9.6,-2.3 -12.6,1.7c-6.5,8.6 -16.3,13.5 -26.8,13.5c-11.6,0 -22,-5.2 -28.8,-14.3c-3,-4 -8.6,-4.8 -12.6,-1.9c-4,3 -4.8,8.6 -1.9,12.6c10.2,13.8 25.9,21.7 43.2,21.7c16.2,0 31.2,-7.5 41.2,-20.5c3,-4.1 2.2,-9.7 -1.7,-12.8z"/>
  <path id="svg_15" fill="#525252" d="m251,195.5m-40,0a40,40 0 1 0 80,0a40,40 0 1 0 -80,0z"/>
  <path id="svg_16" fill="#525252" d="m775,195.5m-40,0a40,40 0 1 0 80,0a40,40 0 1 0 -80,0z"/>
  <path id="svg_17" fill="#525252" d="m363,356.8m-25,0a25,25 0 1 0 50,0a25,25 0 1 0 -50,0z"/>
  <path id="svg_18" fill="#525252" d="m663,356.8m-25,0a25,25 0 1 0 50,0a25,25 0 1 0 -50,0z"/>
  <path id="svg_19" fill="#525252" d="m513,911.8c-26.2,0 -47.8,-19.8 -50.7,-45.2c-151.2,-30.2 -308.3,-188.2 -308.3,-384.8c0,-109.1 33.3,-201.6 96.3,-267.6c64,-67 154.8,-102.4 262.7,-102.4s198.7,35.4 262.7,102.4c63,66 96.3,158.5 96.3,267.6c0,196.6 -157.1,354.6 -308.3,384.8c-2.9,25.4 -24.5,45.2 -50.7,45.2zm0,-770c-99.5,0 -182.8,32.2 -241,93.1c-57.6,60.3 -88,145.6 -88,246.9c0,86.8 33.9,172.4 95.5,241.3c27.6,30.9 60.6,57.8 95.4,77.9c34.2,19.7 70.3,32.9 104.4,38.2l12.7,2l0,19.7c0,11.6 9.4,21 21,21s21,-9.4 21,-21l0,-19.7l12.7,-2c34.1,-5.3 70.3,-18.5 104.4,-38.2c34.7,-20 67.7,-47 95.4,-77.9c61.6,-68.8 95.5,-154.5 95.5,-241.3c0,-101.2 -30.4,-186.6 -88,-246.9c-58.2,-60.9 -141.5,-93.1 -241,-93.1z"/>
  <path id="svg_22" fill="#525252" d="m513,911.8c-26.2,0 -47.8,-19.8 -50.7,-45.2c-151.2,-30.2 -308.3,-188.2 -308.3,-384.8c0,-109.1 33.3,-201.6 96.3,-267.6c64,-67 154.8,-102.4 262.7,-102.4s198.7,35.4 262.7,102.4c63,66 96.3,158.5 96.3,267.6c0,196.6 -157.1,354.6 -308.3,384.8c-2.9,25.4 -24.5,45.2 -50.7,45.2zm0,-770c-99.5,0 -182.8,32.2 -241,93.1c-57.6,60.3 -88,145.6 -88,246.9c0,86.8 33.9,172.4 95.5,241.3c27.6,30.9 60.6,57.8 95.4,77.9c34.2,19.7 70.3,32.9 104.4,38.2l12.7,2l0,19.7c0,11.6 9.4,21 21,21s21,-9.4 21,-21l0,-19.7l12.7,-2c34.1,-5.3 70.3,-18.5 104.4,-38.2c34.7,-20 67.7,-47 95.4,-77.9c61.6,-68.8 95.5,-154.5 95.5,-241.3c0,-101.2 -30.4,-186.6 -88,-246.9c-58.2,-60.9 -141.5,-93.1 -241,-93.1z"/>
 </g>
</svg>