<svg id="b5e29555-d7e6-4042-a98b-95c21dd4c75b" data-name="图层 1" xmlns="http://www.w3.org/2000/svg" viewBox="0 0 200 200"><title>bee (1)</title><path d="M155.47,104.06c0,4.53,4.76,8.21,10.64,8.21s10.65-3.68,10.65-8.21-4.77-8.2-10.65-8.2S155.47,99.53,155.47,104.06Z" style="fill:#fff"/><path d="M166.11,114c-6.83,0-12.4-4.47-12.4-10s5.57-10,12.4-10,12.41,4.47,12.41,10S173,114,166.11,114Zm0-16.4c-4.9,0-8.88,2.89-8.88,6.44s4,6.45,8.88,6.45,8.89-2.89,8.89-6.45S171,97.62,166.11,97.62Z" style="fill:#525252"/><path d="M23.63,104.45c0,4.53,4.77,8.21,10.65,8.21s10.64-3.68,10.64-8.21-4.76-8.2-10.64-8.2S23.63,99.92,23.63,104.45Z" style="fill:#fff"/><path d="M34.28,114.41c-6.84,0-12.4-4.47-12.4-10s5.56-10,12.4-10,12.4,4.47,12.4,10S41.11,114.41,34.28,114.41Zm0-16.4c-4.91,0-8.89,2.89-8.89,6.44s4,6.45,8.89,6.45,8.88-2.89,8.88-6.45S39.18,98,34.28,98Z" style="fill:#525252"/><path d="M17.77,90.29c0,5.34,5.6,9.67,12.5,9.67s12.5-4.33,12.5-9.67-5.59-9.67-12.5-9.67S17.77,85,17.77,90.29Z" style="fill:#fff"/><path d="M30.27,101.72C22.4,101.72,16,96.6,16,90.29S22.4,78.87,30.27,78.87,44.53,84,44.53,90.29,38.14,101.72,30.27,101.72Zm0-19.34c-5.91,0-10.74,3.56-10.74,7.91s4.83,7.91,10.74,7.91S41,94.65,41,90.29,36.19,82.38,30.27,82.38Z" style="fill:#525252"/><path d="M157.62,89.9c0,5.34,5.59,9.67,12.5,9.67s12.5-4.33,12.5-9.67-5.6-9.67-12.5-9.67S157.62,84.56,157.62,89.9Z" style="fill:#fff"/><path d="M170.12,101.33c-7.87,0-14.26-5.12-14.26-11.43s6.39-11.42,14.26-11.42,14.26,5.11,14.26,11.42S178,101.33,170.12,101.33Zm0-19.34c-5.92,0-10.74,3.56-10.74,7.91s4.82,7.91,10.74,7.91,10.74-3.55,10.74-7.91S176,82,170.12,82Z" style="fill:#525252"/><path d="M93.16,166.8C64.67,162.42,33,132.44,33,94.1c0-41.52,25.58-69.33,67.19-69.33s67.18,27.81,67.18,69.33c0,38.34-31.66,68.3-60.15,72.7v1.32a7,7,0,1,1-14.07,0Z" style="fill:#fe741a"/><path d="M70.9,53.28A16.41,16.41,0,1,1,54.49,69.69,16.4,16.4,0,0,1,70.9,53.28Z" style="fill:#fff"/><path d="M70.9,87.85A18.17,18.17,0,1,1,89.06,69.69,18.18,18.18,0,0,1,70.9,87.85ZM70.9,55A14.65,14.65,0,1,0,85.55,69.69,14.65,14.65,0,0,0,70.9,55Z" style="fill:#525252"/><path d="M129.49,53.28a16.41,16.41,0,1,1-16.4,16.41A16.41,16.41,0,0,1,129.49,53.28Z" style="fill:#fff"/><path d="M129.49,87.85a18.17,18.17,0,1,1,18.17-18.16A18.17,18.17,0,0,1,129.49,87.85Zm0-32.81a14.65,14.65,0,1,0,14.65,14.65A14.66,14.66,0,0,0,129.49,55Z" style="fill:#525252"/><path d="M108.11,90a1.76,1.76,0,0,0-2.47.33,6.51,6.51,0,0,1-5.23,2.64,6.91,6.91,0,0,1-5.62-2.79A1.76,1.76,0,0,0,92,92.23a10.39,10.39,0,0,0,8.44,4.23,10.12,10.12,0,0,0,8-4,1.82,1.82,0,0,0-.33-2.5Z" style="fill:#525252"/><path d="M41.21,38.18A7.82,7.82,0,1,0,49,30.37,7.82,7.82,0,0,0,41.21,38.18Z" style="fill:#525252"/><path d="M143.55,38.18a7.82,7.82,0,1,0,7.82-7.81A7.82,7.82,0,0,0,143.55,38.18Z" style="fill:#525252"/><path d="M66,69.69a4.88,4.88,0,1,0,9.76,0h0a4.88,4.88,0,1,0-9.76,0Z" style="fill:#525252"/><path d="M124.61,69.69a4.89,4.89,0,0,0,9.77,0h0a4.89,4.89,0,1,0-9.77,0Z" style="fill:#525252"/><path d="M100.2,178.09a10,10,0,0,1-9.91-8.83c-29.53-5.9-60.21-36.76-60.21-75.16,0-21.31,6.5-39.37,18.81-52.26,12.5-13.09,30.23-20,51.31-20s38.8,6.91,51.3,20c12.31,12.89,18.81,31,18.81,52.26,0,38.4-30.68,69.26-60.21,75.16A10,10,0,0,1,100.2,178.09Zm0-150.39C80.76,27.7,64.49,34,53.13,45.88S35.94,74.32,35.94,94.1c0,17,6.62,33.67,18.65,47.13a77,77,0,0,0,18.63,15.22,60.34,60.34,0,0,0,20.39,7.46l2.48.39v3.84a4.11,4.11,0,1,0,8.21,0V164.3l2.48-.39a60.19,60.19,0,0,0,20.39-7.46,77.13,77.13,0,0,0,18.63-15.22c12-13.44,18.65-30.18,18.65-47.13,0-19.76-5.93-36.44-17.18-48.22S119.63,27.7,100.2,27.7Z" style="fill:#525252"/><path d="M100.2,178.09a10,10,0,0,1-9.91-8.83c-29.53-5.9-60.21-36.76-60.21-75.16,0-21.31,6.5-39.37,18.81-52.26,12.5-13.09,30.23-20,51.31-20s38.8,6.91,51.3,20c12.31,12.89,18.81,31,18.81,52.26,0,38.4-30.68,69.26-60.21,75.16A10,10,0,0,1,100.2,178.09Zm0-150.39C80.76,27.7,64.49,34,53.13,45.88S35.94,74.32,35.94,94.1c0,17,6.62,33.67,18.65,47.13a77,77,0,0,0,18.63,15.22,60.34,60.34,0,0,0,20.39,7.46l2.48.39v3.84a4.11,4.11,0,1,0,8.21,0V164.3l2.48-.39a60.19,60.19,0,0,0,20.39-7.46,77.13,77.13,0,0,0,18.63-15.22c12-13.44,18.65-30.18,18.65-47.13,0-19.76-5.93-36.44-17.18-48.22S119.63,27.7,100.2,27.7Z" style="fill:#525252"/></svg>